<svg width="280" height="64" viewBox="0 0 280 64" fill="none" xmlns="http://www.w3.org/2000/svg">
<path d="M171.713 61.6764C169.806 62.4265 167.809 62.9208 165.773 63.1458C137.33 66.3827 125.277 33.4333 138.919 12.0049C143.006 5.58492 151.397 1.19049 158.914 0.39864C177.826 -1.6129 191.973 17.9871 190.182 35.5367C189.403 43.1614 187.677 47.1808 183.085 53.3468C184.819 55.6508 186.873 57.8482 188.456 60.2648C188.954 61.0249 189.09 61.6116 188.611 62.3864C187.136 63.2838 178.351 62.7901 176.197 62.6394C175.248 61.9171 174.909 61.3786 174.237 60.4326C173.424 60.8565 172.541 61.2713 171.713 61.6764ZM159.634 15.7713C150.43 16.8058 145.15 24.9315 146.201 33.8448C146.696 37.9497 148.811 41.6867 152.075 44.225C155.801 47.0962 159.698 47.5348 164.228 46.9425C162.867 44.7662 161.25 42.6543 159.697 40.604L156.824 36.6378C160.199 36.6271 163.577 36.6134 166.951 36.6201C168.106 36.6221 170.045 36.4496 170.85 37.3661C171.89 38.5504 172.719 40.0348 173.543 41.3838C175.863 38.911 176.636 34.5838 176.541 31.3034C176.443 26.8528 174.533 22.6349 171.252 19.6256C168.23 16.8225 163.762 15.1954 159.634 15.7713Z" fill="white"/>
<path d="M42.696 27.8055C46.0757 20.0909 48.7948 11.5343 52.0017 3.6927C52.6367 2.13976 52.6631 1.69387 54.2542 1.00597C55.762 1.15271 56.3293 1.28174 56.954 2.76883C57.6974 4.53837 58.3455 6.33766 59.0223 8.13327L62.7867 18.1151C66.4959 28.0461 70.3749 37.9129 74.4221 47.7113L74.4719 19.0931L74.4385 9.13938C74.4114 3.0984 73.2953 0.926754 80.1829 1.28541C85.3057 1.55214 85.291 2.05887 85.3097 6.92461L85.3127 41.3631L85.3371 52.8986C85.3415 54.9826 85.4013 57.1259 85.2883 59.2197C85.271 60.9915 84.4654 62.6444 82.4071 62.5806C78.0675 62.4459 71.4342 63.1842 67.2704 62.4402C66.2957 60.7017 64.5024 55.738 63.6524 53.6346L45.0953 53.6456L44.6046 55.0241C44.245 56.1913 42.6987 62.034 41.7023 62.3182C38.7839 62.8684 33.9717 62.9419 31.1569 62.3061C29.4118 61.9117 32.0751 57.0243 32.507 56.0877C25.5913 62.9345 19.5911 62.9165 10.3326 62.744C7.84671 62.6979 5.30204 62.9232 2.80315 62.6885C0.846934 62.5047 0.277933 60.6573 0.136677 58.9683C0.0387739 54.9338 0.0897799 50.8763 0.0965987 46.8365L0.114248 24.1003L0.0981696 10.8601C0.0924538 8.61895 -0.211115 5.81422 0.278902 3.64023C0.415478 3.03423 0.773095 1.99537 1.35105 1.68184C2.91423 0.834167 20.6152 1.27171 22.9032 1.92818C25.2958 2.6144 27.3812 3.39823 29.4786 4.75831C37.7207 10.1017 40.7336 18.6613 42.696 27.8055ZM14.7992 16.1102C13.6604 16.2216 12.7422 16.2971 11.6214 16.5391C11.6385 26.7522 11.471 37.4925 11.6358 47.6448C15.8939 48.9266 21.5073 48.1819 25.1838 45.6269C28.6513 42.9863 29.9342 39.8326 30.6194 35.6303C32.3716 24.8871 26.6853 15.0106 14.7992 16.1102ZM54.2612 27.5337C52.7363 32.1427 51.0952 36.7123 49.3383 41.2381L54.5173 41.2535L59.615 41.3304C58.902 39.3085 55.153 28.6598 54.2612 27.5337Z" fill="white"/>
<path d="M225.752 17.9757L225.766 34.3512C225.767 41.1636 226.157 50.4151 222.391 56.2993C220.175 59.7755 216.638 62.1995 212.596 63.0128C208.084 63.9437 202.083 63.3069 198.193 60.6489C190.653 55.4984 190.709 46.518 190.693 38.3147L190.723 25.085L190.638 11.5868C190.628 9.30852 190.564 7.00451 190.662 4.73091C190.767 2.26345 191.317 1.48363 193.73 1.22492C196.636 1.15506 201.573 0.366221 201.743 4.39732C201.864 7.27391 201.834 10.1385 201.834 13.0181L201.832 31.281C201.832 34.7289 201.732 38.4558 202.015 41.8562C202.264 44.0088 202.847 46.7042 204.61 48.0857C207.211 49.9989 212.019 49.776 213.609 46.655C215.046 43.8349 214.946 40.6853 214.986 37.6088C215.015 35.4612 214.989 33.2735 214.988 31.1076L214.964 13.6221C214.955 10.6084 214.905 7.54801 214.989 4.53839C215.045 2.53754 215.912 1.25701 218.01 1.15172C226.167 0.741591 225.767 1.81956 225.764 9.26507L225.752 17.9757Z" fill="white"/>
<path d="M236.931 62.6404C226.622 62.7223 227.865 62.6778 227.86 52.3631L227.87 16.6711C227.871 12.8178 227.819 8.94283 227.933 5.0939C227.996 2.97841 228.635 1.63303 230.773 1.21521C232.865 1.17744 239.051 0.411665 239.303 3.47376C239.782 9.28611 239.571 15.4748 239.589 21.3544L239.606 45.7439C239.602 50.1724 239.636 54.6146 239.528 59.0408C239.477 61.1767 239.064 62.2282 236.931 62.6404Z" fill="white"/>
<path d="M259.727 17.23C257.382 17.2296 243.887 17.6381 242.495 16.6969C241.589 16.0835 241.183 14.9089 241.01 13.8781C240.65 11.7382 240.533 3.99721 241.8 2.41819C242.478 1.57286 243.45 1.38468 244.466 1.23594C247.758 1.15538 276.885 1.01867 278.172 1.57787C278.672 1.79481 279.042 2.22399 279.238 2.72737C279.606 3.6693 279.483 4.74594 279.194 5.68954C278.298 8.61326 276.295 11.9401 274.953 14.7472C271.821 21.2471 268.618 27.7119 265.343 34.1406C263.326 38.0787 260.541 43.1043 258.867 47.123C260.745 47.0495 262.625 47.0026 264.504 46.9826L272.209 46.9913C281.728 47.0297 279.746 47.8199 279.966 56.561C280.016 58.5782 279.966 61.0283 278.312 62.3823C276.619 62.8065 272.808 62.6614 270.927 62.6584L259.824 62.6374C254.559 62.6297 249.295 62.6882 244.032 62.6818C242.737 62.6802 241.592 62.4248 241.192 61.0717C240.763 59.6224 240.749 56.4306 241.286 55.0127C243.365 49.5193 246.39 44.3233 249.002 39.0698C252.694 31.8135 256.137 24.5047 259.727 17.23Z" fill="white"/>
<path d="M126.647 2.57798C126.948 2.24238 127.254 1.88373 127.657 1.66747C128.741 1.08587 136.03 1.06782 137.282 1.50469C137.833 1.69688 138.37 2.06222 138.554 2.64817C138.719 3.17294 138.56 3.83076 138.4 4.33783C137.873 6.00876 136.926 7.64293 136.16 9.22027C135.07 11.4624 134.034 13.711 133.017 15.9862L128.098 26.9845C127.2 28.9951 125.797 31.3877 125.431 33.559C124.597 38.5036 126.189 58.8108 124.819 61.277C124.478 61.89 123.983 62.269 123.305 62.4392C121.15 62.9787 118.458 62.6738 116.23 62.6681L105.424 62.6468C100.549 62.6437 95.6677 62.7183 90.7949 62.6247C88.6256 62.5832 87.92 61.7493 87.8181 59.6328C87.6302 55.726 87.6984 51.7932 87.6974 47.8797L87.667 28.4944L87.7007 11.0968C87.7108 8.80646 87.0981 4.08279 88.539 2.225C89.1808 1.39739 90.4252 1.4462 91.4109 1.41745C93.2046 1.38804 96.5939 1.04408 97.8136 2.3099C98.2698 2.78354 98.459 4.19643 98.4724 4.85692C98.5673 9.66081 98.5329 14.5717 98.5366 19.3706L98.6004 49.2011C103.449 49.3759 109.202 49.2101 114.172 49.2465C114.163 46.4836 114.489 35.024 113.926 33.0151C112.518 27.9836 100.386 5.13001 101.047 2.71402C101.176 2.2454 101.551 1.85633 101.97 1.63238C102.446 1.37768 103.008 1.29745 103.54 1.26402C104.592 1.19784 110.876 1.28375 111.449 1.4716C112.117 1.6902 112.546 2.38311 112.889 2.95869C113.808 4.50161 114.418 6.35404 115.116 8.01094C116.589 11.5056 118.016 15.0293 119.636 18.459C121.903 13.5214 124.202 7.30566 126.647 2.57798Z" fill="white"/>
</svg>
