<svg width="52" height="52" viewBox="0 0 52 52" fill="none" xmlns="http://www.w3.org/2000/svg">
<path d="M19.832 11.7173C22.5772 6.79465 23.9487 4.33331 26.0005 4.33331C28.0523 4.33331 29.4238 6.79465 32.169 11.7173L32.8797 12.9913C33.6597 14.391 34.0497 15.0908 34.6563 15.5523C35.263 16.0138 36.0213 16.185 37.538 16.5273L38.916 16.8393C44.246 18.0461 46.9088 18.6485 47.5437 20.6873C48.1763 22.724 46.3607 24.8495 42.7272 29.0983L41.7868 30.1968C40.7555 31.4036 40.2377 32.0081 40.0058 32.7535C39.774 33.501 39.852 34.307 40.008 35.9168L40.151 37.3836C40.6992 43.0538 40.9743 45.8878 39.3147 47.1466C37.655 48.4055 35.159 47.2571 30.1713 44.9605L28.8778 44.3668C27.4608 43.7125 26.7523 43.3875 26.0005 43.3875C25.2487 43.3875 24.5402 43.7125 23.1232 44.3668L21.8318 44.9605C16.842 47.2571 14.346 48.4055 12.6885 47.1488C11.0267 45.8878 11.3018 43.0538 11.85 37.3836L11.993 35.919C12.149 34.307 12.227 33.501 11.993 32.7556C11.7633 32.0081 11.2455 31.4036 10.2142 30.199L9.27382 29.0983C5.64032 24.8516 3.82466 22.7261 4.45732 20.6873C5.08999 18.6485 7.75716 18.044 13.0872 16.8393L14.4652 16.5273C15.9797 16.185 16.7358 16.0138 17.3447 15.5523C17.9535 15.0908 18.3413 14.391 19.1213 12.9913L19.832 11.7173Z" fill="#BABABA"/>
</svg>
